<svg xmlns="http://www.w3.org/2000/svg" viewBox="0 0 512 512" width="512" height="512" shape-rendering="crispEdges"><rect width="512" height="512" fill="#171717"/><rect x="32" y="32" width="32" height="32" fill="#ededed"/><rect x="64" y="32" width="32" height="32" fill="#ededed"/><rect x="96" y="32" width="32" height="32" fill="#ededed"/><rect x="128" y="32" width="32" height="32" fill="#ededed"/><rect x="160" y="32" width="32" height="32" fill="#ededed"/><rect x="192" y="32" width="32" height="32" fill="#ededed"/><rect x="224" y="32" width="32" height="32" fill="#ededed"/><rect x="256" y="32" width="32" height="32" fill="#ededed"/><rect x="288" y="32" width="32" height="32" fill="#ededed"/><rect x="320" y="32" width="32" height="32" fill="#ededed"/><rect x="352" y="32" width="32" height="32" fill="#ededed"/><rect x="384" y="32" width="32" height="32" fill="#ededed"/><rect x="416" y="32" width="32" height="32" fill="#ededed"/><rect x="448" y="32" width="32" height="32" fill="#ededed"/><rect x="32" y="64" width="32" height="32" fill="#ededed"/><rect x="448" y="64" width="32" height="32" fill="#ededed"/><rect x="32" y="96" width="32" height="32" fill="#ededed"/><rect x="64" y="96" width="32" height="32" fill="#ededed"/><rect x="96" y="96" width="32" height="32" fill="#ededed"/><rect x="128" y="96" width="32" height="32" fill="#ededed"/><rect x="160" y="96" width="32" height="32" fill="#ededed"/><rect x="192" y="96" width="32" height="32" fill="#ededed"/><rect x="224" y="96" width="32" height="32" fill="#ededed"/><rect x="256" y="96" width="32" height="32" fill="#ededed"/><rect x="288" y="96" width="32" height="32" fill="#ededed"/><rect x="320" y="96" width="32" height="32" fill="#ededed"/><rect x="352" y="96" width="32" height="32" fill="#ededed"/><rect x="384" y="96" width="32" height="32" fill="#ededed"/><rect x="416" y="96" width="32" height="32" fill="#ededed"/><rect x="448" y="96" width="32" height="32" fill="#ededed"/><rect x="32" y="128" width="32" height="32" fill="#ededed"/><rect x="448" y="128" width="32" height="32" fill="#ededed"/><rect x="32" y="160" width="32" height="32" fill="#ededed"/><rect x="96" y="160" width="32" height="32" fill="#ededed"/><rect x="128" y="160" width="32" height="32" fill="#ededed"/><rect x="192" y="160" width="32" height="32" fill="#ededed"/><rect x="224" y="160" width="32" height="32" fill="#ededed"/><rect x="256" y="160" width="32" height="32" fill="#ededed"/><rect x="288" y="160" width="32" height="32" fill="#ededed"/><rect x="448" y="160" width="32" height="32" fill="#ededed"/><rect x="32" y="192" width="32" height="32" fill="#ededed"/><rect x="448" y="192" width="32" height="32" fill="#ededed"/><rect x="32" y="224" width="32" height="32" fill="#ededed"/><rect x="96" y="224" width="32" height="32" fill="#ededed"/><rect x="128" y="224" width="32" height="32" fill="#ededed"/><rect x="160" y="224" width="32" height="32" fill="#ededed"/><rect x="192" y="224" width="32" height="32" fill="#ededed"/><rect x="224" y="224" width="32" height="32" fill="#ededed"/><rect x="288" y="224" width="32" height="32" fill="#ededed"/><rect x="320" y="224" width="32" height="32" fill="#ededed"/><rect x="448" y="224" width="32" height="32" fill="#ededed"/><rect x="32" y="256" width="32" height="32" fill="#ededed"/><rect x="448" y="256" width="32" height="32" fill="#ededed"/><rect x="32" y="288" width="32" height="32" fill="#ededed"/><rect x="96" y="288" width="32" height="32" fill="#ededed"/><rect x="128" y="288" width="32" height="32" fill="#ededed"/><rect x="160" y="288" width="32" height="32" fill="#ededed"/><rect x="224" y="288" width="32" height="32" fill="#ededed"/><rect x="256" y="288" width="32" height="32" fill="#ededed"/><rect x="288" y="288" width="32" height="32" fill="#ededed"/><rect x="320" y="288" width="32" height="32" fill="#ededed"/><rect x="352" y="288" width="32" height="32" fill="#ededed"/><rect x="448" y="288" width="32" height="32" fill="#ededed"/><rect x="32" y="320" width="32" height="32" fill="#ededed"/><rect x="448" y="320" width="32" height="32" fill="#ededed"/><rect x="32" y="352" width="32" height="32" fill="#ededed"/><rect x="96" y="352" width="32" height="32" fill="#ededed"/><rect x="128" y="352" width="32" height="32" fill="#ededed"/><rect x="192" y="352" width="32" height="32" fill="#ededed"/><rect x="224" y="352" width="32" height="32" fill="#ededed"/><rect x="448" y="352" width="32" height="32" fill="#ededed"/><rect x="32" y="384" width="32" height="32" fill="#ededed"/><rect x="192" y="384" width="32" height="32" fill="#ededed"/><rect x="224" y="384" width="32" height="32" fill="#ededed"/><rect x="448" y="384" width="32" height="32" fill="#ededed"/><rect x="32" y="416" width="32" height="32" fill="#ededed"/><rect x="448" y="416" width="32" height="32" fill="#ededed"/><rect x="32" y="448" width="32" height="32" fill="#ededed"/><rect x="64" y="448" width="32" height="32" fill="#ededed"/><rect x="96" y="448" width="32" height="32" fill="#ededed"/><rect x="128" y="448" width="32" height="32" fill="#ededed"/><rect x="160" y="448" width="32" height="32" fill="#ededed"/><rect x="192" y="448" width="32" height="32" fill="#ededed"/><rect x="224" y="448" width="32" height="32" fill="#ededed"/><rect x="256" y="448" width="32" height="32" fill="#ededed"/><rect x="288" y="448" width="32" height="32" fill="#ededed"/><rect x="320" y="448" width="32" height="32" fill="#ededed"/><rect x="352" y="448" width="32" height="32" fill="#ededed"/><rect x="384" y="448" width="32" height="32" fill="#ededed"/><rect x="416" y="448" width="32" height="32" fill="#ededed"/><rect x="448" y="448" width="32" height="32" fill="#ededed"/></svg>